<svg xmlns="http://www.w3.org/2000/svg" width="35" height="35" viewBox="0 0 94.595 94.595" xmlns:v="https://vecta.io/nano"><path d="M86.407 58.933V33.88l-5.173 2.298v22.755l2.586-2.586zm4.958-35.558L50.023 2.67c-1.413-.708-3.726-.708-5.139 0L3.541 23.375c-1.413.708-1.455 1.944-.094 2.746l38.516 22.696.026.015-25.574-11.445v7.495c0 1.581 1.114 3.531 2.476 4.333l26.086 15.371c1.362.803 3.59.803 4.952 0l26.086-15.371c1.362-.803 2.476-2.752 2.476-4.333v-7.486L53.404 48.545l38.055-22.424c1.361-.803 1.319-2.039-.094-2.746z"/></svg>